HIERARCHY
ROOT ui
{
	 OFFSET 0 0 0
	 CHANNELS 3 XPosition YPosition Z Position
	 EndSite
	 {
	 OFFSET 0 -1 0
	 }
}
ROOT li
{
	 OFFSET 0 0 0
	 CHANNELS 3 XPosition YPosition Z Position
	 EndSite
	 {
	 OFFSET 0 -1 0
	 }
}
ROOT ul
{
	 OFFSET 0 0 0
	 CHANNELS 3 XPosition YPosition Z Position
	 EndSite
	 {
	 OFFSET 0 -1 0
	 }
}
ROOT ll
{
	 OFFSET 0 0 0
	 CHANNELS 3 XPosition YPosition Z Position
	 EndSite
	 {
	 OFFSET 0 -1 0
	 }
}
ROOT tt
{
	 OFFSET 0 0 0
	 CHANNELS 3 XPosition YPosition Z Position
	 EndSite
	 {
	 OFFSET 0 -1 0
	 }
}
ROOT tb
{
	 OFFSET 0 0 0
	 CHANNELS 3 XPosition YPosition Z Position
	 EndSite
	 {
	 OFFSET 0 -1 0
	 }
}
ROOT td
{
	 OFFSET 0 0 0
	 CHANNELS 3 XPosition YPosition Z Position
	 EndSite
	 {
	 OFFSET 0 -1 0
	 }
}
ROOT v
{
	 OFFSET 0 0 0
	 CHANNELS 3 XPosition YPosition Z Position
	 EndSite
	 {
	 OFFSET 0 -1 0
	 }
}
ROOT bn
{
	 OFFSET 0 0 0
	 CHANNELS 3 XPosition YPosition Z Position
	 EndSite
	 {
	 OFFSET 0 -1 0
	 }
}
MOTION
Frames: 27
Frame Time: 0.002
9.039999842643737E-4	-0.0016922160387039184	0		0.5493457641601562	-2.444044189453125	0		-1.0900546875	0.09663951873779297	0		-0.6934447631835937	-2.684018798828125	0		1.395657470703125	-0.7394970092773437	0		3.0535283203125	-0.052183448791503904	0		4.59408544921875	0.16542550659179686	0		5.6591669921875	0.21976727294921874	0		-0.3933077392578125	5.91213916015625	0		
-0.01717915916442871	-0.005513948917388916	0		0.4967945556640625	-2.440598388671875	0		-1.1640543212890626	0.09870885467529297	0		-0.6700551147460938	-2.681168212890625	0		1.3974525146484376	-0.7398640747070313	0		3.059535888671875	-0.04797093963623047	0		4.5860966796875	0.16545208740234374	0		5.66696728515625	0.2173206024169922	0		-0.3900121154785156	5.91217529296875	0		
-0.020182947158813476	-5.255500078201294E-4	0		0.550141845703125	-2.447386962890625	0		-1.0861119384765625	0.09699007415771485	0		-0.7036470947265625	-2.677689208984375	0		1.4021282958984376	-0.7492682495117188	0		3.08138037109375	-0.05592689514160156	0		4.5929755859375	0.15634881591796876	0		5.66191552734375	0.21532766723632812	0		-0.38682122802734376	5.91218408203125	0		
-0.013353875160217285	-0.005674405097961426	0		0.5016468505859375	-2.438992919921875	0		-1.148306396484375	0.08887531280517579	0		-0.689359130859375	-2.683798583984375	0		1.4187491455078125	-0.75981689453125	0		3.06751025390625	-0.03543938446044922	0		4.5948955078125	0.15534844970703124	0		5.66324755859375	0.2132592315673828	0		-0.4168459167480469	5.90556103515625	0		
-0.01343934440612793	0.0022402820587158205	0		0.533042236328125	-2.4375595703125	0		-1.1483746337890626	0.09699713134765625	0		-0.6958844604492187	-2.67168798828125	0		1.41162353515625	-0.744079345703125	0		3.065153076171875	-0.05006113052368164	0		4.5967421875	0.15439845275878905	0		5.667443359375	0.22332879638671874	0		-0.3657593078613281	5.92094287109375	0		
-0.024634002685546875	0.008274983406066895	0		0.496478515625	-2.428309326171875	0		-1.080620849609375	0.09725160980224609	0		-0.6636890258789062	-2.67907861328125	0		1.4101927490234376	-0.7474049682617188	0		3.080873779296875	-0.050872161865234376	0		4.59849853515625	0.15350338745117187	0		5.678580078125	0.2073567810058594	0		-0.3781487731933594	5.9120625	0		
-0.008179309844970704	-0.006046610832214356	0		0.5554984741210938	-2.448244140625	0		-1.0789774169921875	0.09727547454833985	0		-0.6974263305664062	-2.67568310546875	0		1.405783203125	-0.7416844482421875	0		3.068495849609375	-0.05130490493774414	0		4.59525	0.16072811889648436	0		5.6733193359375	0.20756857299804687	0		-0.24336076354980468	5.93233642578125	0		
-0.014649191856384277	-0.005096208095550537	0		0.5317224731445312	-2.445156982421875	0		-1.071509765625	0.09219619750976563	0		-0.6643509521484375	-2.682140869140625	0		1.4100865478515625	-0.7510640258789063	0		3.070006591796875	-0.051873973846435543	0		4.59678955078125	0.15995112609863282	0		5.66797216796875	0.20618386840820313	0		-0.42249847412109376	5.89649658203125	0		
-0.0101981840133667	-0.0012930970191955566	0		0.5078919067382812	-2.44006494140625	0		-1.140142578125	0.08905485534667969	0		-0.6832994995117188	-2.683966552734375	0		1.426268310546875	-0.761585205078125	0		3.081222900390625	-0.06653308868408203	0		4.59702001953125	0.1442461700439453	0		5.6718779296875	0.21675257873535156	0		-0.39012945556640627	5.91600537109375	0		
0.003107918977737427	3.8789701461791994E-4	0		0.5409593505859375	-2.43669580078125	0		-1.058832275390625	0.08998716735839844	0		-0.6313878173828125	-2.69071142578125	0		1.4335570068359376	-0.7549825439453125	0		3.10880224609375	-0.043365943908691404	0		4.60156005859375	0.16254489135742187	0		5.67570947265625	0.22917271423339844	0		-0.3872237243652344	5.9148681640625	0		
-0.014600173950195312	0.010462667465209961	0		0.5289431762695312	-2.432748779296875	0		-1.1455133056640625	0.10205184936523437	0		-0.6912693481445312	-2.67403564453125	0		1.416725830078125	-0.749055419921875	0		3.07383349609375	-0.05336374664306641	0		4.600685546875	0.1579671630859375	0		5.6736044921875	0.21421504211425782	0		-0.3665566711425781	5.9104912109375	0		
-0.0036751060485839845	0.001165842056274414	0		0.5626146850585938	-2.446387939453125	0		-1.07252099609375	0.09704257965087891	0		-0.6575137329101562	-2.679575927734375	0		1.4146678466796876	-0.7523010864257812	0		3.07487109375	-0.05378404235839844	0		4.61663525390625	0.14922810363769531	0		5.67784228515625	0.20090969848632811	0		-0.36601861572265626	5.91136474609375	0		
-8.54906976222992E-4	-0.007026439189910889	0		0.5094133605957031	-2.442889892578125	0		-1.1475701904296876	0.09894115447998048	0		-0.6818641357421875	-2.686370849609375	0		1.415540283203125	-0.7525663452148438	0		3.0807001953125	-0.061229061126708985	0		4.59267626953125	0.1570662078857422	0		5.67207763671875	0.20015122985839845	0		-0.36468399047851563	5.91122314453125	0		
-0.014859305381774903	0.007005094051361084	0		0.5401085205078126	-2.441476318359375	0		-1.129846435546875	0.0916208267211914	0		-0.6791804809570312	-2.68452197265625	0		1.4311761474609375	-0.7630068359375	0		3.1006767578125	-0.0488192024230957	0		4.608390625	0.14844378662109375	0		5.67556982421875	0.2113321990966797	0		-0.3966233825683594	5.90451318359375	0		
-0.011116395950317383	0.009806720733642579	0		0.5167695922851563	-2.4363447265625	0		-1.1291387939453126	0.0915124740600586	0		-0.6864397583007813	-2.672546630859375	0		1.43184521484375	-0.7632307739257812	0		3.085274169921875	-0.05690742111206055	0		4.6091005859375	0.14807647705078125	0		5.682486328125	0.21041458129882812	0		-0.3625643615722656	5.91093701171875	0		
0.00430125093460083	-0.00454380989074707	0		0.5671826171875	-2.445174560546875	0		-1.0654063720703124	0.1005640640258789	0		-0.6879508666992188	-2.67465185546875	0		1.4205955810546875	-0.7502753295898438	0		3.10688671875	-0.05644038391113281	0		4.609708984375	0.14777015686035155	0		5.6829140625	0.20982752990722656	0		-0.2285011749267578	5.9300400390625	0		
-0.013039643287658692	0.006542634010314941	0		0.5048077087402344	-2.432505859375	0		-1.1449244384765624	0.09849260711669922	0		-0.7004010009765625	-2.667616455078125	0		1.4239599609375	-0.7604939575195313	0		3.08638671875	-0.05737832260131836	0		4.60533056640625	0.15558872985839844	0		5.6896962890625	0.2091588134765625	0		-0.22885116577148437	5.93090771484375	0		
-0.0027267310619354247	-0.0027357079982757567	0		0.5639865112304687	-2.45043603515625	0		-1.0685107421875	0.09635285949707031	0		-0.6891146240234375	-2.6769013671875	0		1.41847802734375	-0.7535765380859375	0		3.078845703125	-0.05545051956176758	0		4.61455224609375	0.13927847290039064	0		5.6835859375	0.20901364135742187	0		-0.3616256408691406	5.91152197265625	0		
0.0025717740058898925	-0.007947000980377197	0		0.5164864501953125	-2.43994873046875	0		-1.1272197265625	0.09098777008056641	0		-0.6639514770507813	-2.69237548828125	0		1.433709228515625	-0.7639202880859375	0		3.08902490234375	-0.06972877502441406	0		4.604931640625	0.14026229858398437	0		5.67742724609375	0.20896200561523437	0		-0.3933602905273437	5.9037998046875	0		
0.005027234077453613	0.0028803160190582276	0		0.5728087158203125	-2.440830078125	0		-1.04687744140625	0.09277804565429687	0		-0.6694240112304688	-2.677447509765625	0		1.44011669921875	-0.7571356201171875	0		3.115650390625	-0.0461982421875	0		4.60033349609375	0.14721409606933594	0		5.6805771484375	0.2225247802734375	0		-0.37795989990234374	5.91345263671875	0		
0.001256379008293152	-2.1208199858665467E-4	0		0.5191522216796876	-2.437256103515625	0		-1.063516357421875	0.09984297943115235	0		-0.6491102905273437	-2.676865478515625	0		1.4343028564453124	-0.7641831665039063	0		3.08469775390625	-0.0628939323425293	0		4.61159912109375	0.14698162841796875	0		5.684259765625	0.20844277954101562	0		-0.3607940673828125	5.91107861328125	0		
0.028373586654663087	-0.009712709426879882	0		0.5672958984375	-2.448024658203125	0		-1.067332275390625	0.09573223876953126	0		-0.6878364868164063	-2.67750830078125	0		1.422726318359375	-0.7511475219726562	0		3.080029541015625	-0.05592192840576172	0		4.60694091796875	0.15497950744628905	0		5.67801220703125	0.20856092834472656	0		-0.3596697082519531	5.90991357421875	0		
-0.008168889045715331	0.008627478599548339	0		0.5156329345703125	-2.44247509765625	0		-1.05524951171875	0.08540814971923828	0		-0.6526075439453125	-2.6811279296875	0		1.431734375	-0.7683812255859375	0		3.085155517578125	-0.06307046508789063	0		4.61204931640625	0.14686187744140625	0		5.68166943359375	0.19628213500976563	0		-0.3595716857910156	5.9097607421875	0		
0.02386082649230957	-0.0049364171028137204	0		0.5179169921875	-2.440634521484375	0		-1.1259893798828124	0.09017201232910156	0		-0.70933935546875	-2.68053857421875	0		1.4350072021484375	-0.7645335693359375	0		3.0895439453125	-0.049199840545654294	0		4.60125048828125	0.14696482849121092	0		5.67831640625	0.20847145080566407	0		-0.37943301391601564	5.9148701171875	0		
0.00614788293838501	0.00215672492980957	0		0.5202075805664063	-2.43779150390625	0		-1.1257978515625	0.09000257873535156	0		-0.646009033203125	-2.6755244140625	0		1.435218994140625	-0.7646423950195312	0		3.085555419921875	-0.06321584701538085	0		4.607544921875	0.15485162353515625	0		5.6912939453125	0.20804576110839842	0		-0.3594466552734375	5.90945654296875	0		
-0.01062577533721924	0.0052388238906860354	0		0.5443851318359375	-2.443232666015625	0		-1.13254833984375	0.09492610931396485	0		-0.682741943359375	-2.6741962890625	0		1.4354232177734374	-0.7647476806640625	0		3.080834716796875	-0.05621614074707031	0		4.60162255859375	0.14690275573730469	0		5.6785908203125	0.20844741821289062	0		-0.35940481567382815	5.9093076171875	0		
0.002472852945327759	-0.0010679910182952882	0		0.5425842895507812	-2.446330322265625	0		-1.0623131103515624	0.09884642028808593	0		-0.6515921630859375	-2.681754638671875	0		1.4207520751953124	-0.7546547241210938	0		3.085922607421875	-0.06334254074096679	0		4.61279638671875	0.1467347106933594	0		5.68862939453125	0.194292724609375	0		-0.36035842895507814	5.9101748046875	0		
